<mxfile host="app.diagrams.net" modified="2021-07-26T10:59:48.061Z" agent="5.0 (X11; Linux x86_64) AppleWebKit/537.36 (KHTML, like Gecko) Chrome/91.0.4472.114 Safari/537.36" etag="6zc1LQ_AQpuzUQVkv2id" version="14.8.0" type="github">
  <diagram name="Page-1" id="12e1b939-464a-85fe-373e-61e167be1490">
    <mxGraphModel dx="908" dy="1520" grid="1" gridSize="10" guides="1" tooltips="1" connect="1" arrows="1" fold="1" page="1" pageScale="1.5" pageWidth="1169" pageHeight="826" background="none" math="0" shadow="0">
      <root>
        <mxCell id="0" />
        <mxCell id="1" parent="0" />
        <mxCell id="60da8b9f42644d3a-2" value="" style="whiteSpace=wrap;html=1;rounded=1;shadow=0;strokeWidth=8;fontSize=20;align=center;fillColor=#FED217;strokeColor=#FFFFFF;" parent="1" vertex="1">
          <mxGeometry x="450" y="405" width="280" height="430" as="geometry" />
        </mxCell>
        <mxCell id="60da8b9f42644d3a-3" value="大数据平台" style="text;html=1;strokeColor=none;fillColor=none;align=center;verticalAlign=middle;whiteSpace=wrap;rounded=0;shadow=0;fontSize=27;fontColor=#FFFFFF;fontStyle=1" parent="1" vertex="1">
          <mxGeometry x="450" y="425" width="280" height="60" as="geometry" />
        </mxCell>
        <mxCell id="60da8b9f42644d3a-6" value="" style="line;strokeWidth=2;html=1;rounded=0;shadow=0;fontSize=27;align=center;fillColor=none;strokeColor=#FFFFFF;" parent="1" vertex="1">
          <mxGeometry x="470" y="485" width="240" height="10" as="geometry" />
        </mxCell>
        <mxCell id="60da8b9f42644d3a-8" value="STRANGERS" style="ellipse;whiteSpace=wrap;html=1;rounded=0;shadow=0;strokeWidth=6;fontSize=14;align=center;fillColor=#BFB4A9;strokeColor=#FFFFFF;fontColor=#FFFFFF;" parent="1" vertex="1">
          <mxGeometry x="330" y="545" width="115" height="115" as="geometry" />
        </mxCell>
        <mxCell id="60da8b9f42644d3a-9" value="" style="html=1;shadow=0;dashed=0;align=center;verticalAlign=middle;shape=mxgraph.arrows2.stylisedArrow;dy=0.6;dx=40;notch=15;feather=0.4;rounded=0;strokeWidth=1;fontSize=27;strokeColor=none;fillColor=#fff2cc;" parent="1" vertex="1">
          <mxGeometry x="337.5" y="575.5" width="100" height="60" as="geometry" />
        </mxCell>
        <mxCell id="60da8b9f42644d3a-17" value="" style="whiteSpace=wrap;html=1;rounded=1;shadow=0;strokeWidth=8;fontSize=20;align=center;fillColor=#FFC001;strokeColor=#FFFFFF;" parent="1" vertex="1">
          <mxGeometry x="730" y="405" width="280" height="430" as="geometry" />
        </mxCell>
        <mxCell id="60da8b9f42644d3a-18" value="数据资产体系" style="text;html=1;strokeColor=none;fillColor=none;align=center;verticalAlign=middle;whiteSpace=wrap;rounded=0;shadow=0;fontSize=27;fontColor=#FFFFFF;fontStyle=1" parent="1" vertex="1">
          <mxGeometry x="730" y="425" width="280" height="60" as="geometry" />
        </mxCell>
        <mxCell id="60da8b9f42644d3a-20" value="" style="line;strokeWidth=2;html=1;rounded=0;shadow=0;fontSize=27;align=center;fillColor=none;strokeColor=#FFFFFF;" parent="1" vertex="1">
          <mxGeometry x="750" y="485" width="240" height="10" as="geometry" />
        </mxCell>
        <mxCell id="60da8b9f42644d3a-22" value="" style="ellipse;whiteSpace=wrap;html=1;rounded=0;shadow=0;strokeWidth=6;fontSize=14;align=center;fillColor=#397DAA;strokeColor=#FFFFFF;fontColor=#FFFFFF;" parent="1" vertex="1">
          <mxGeometry x="673" y="545.5" width="115" height="115" as="geometry" />
        </mxCell>
        <mxCell id="60da8b9f42644d3a-24" value="" style="whiteSpace=wrap;html=1;rounded=1;shadow=0;strokeWidth=8;fontSize=20;align=center;fillColor=#FFB001;strokeColor=#FFFFFF;" parent="1" vertex="1">
          <mxGeometry x="1010" y="405" width="280" height="430" as="geometry" />
        </mxCell>
        <mxCell id="60da8b9f42644d3a-25" value="数据服务能力" style="text;html=1;strokeColor=none;fillColor=none;align=center;verticalAlign=middle;whiteSpace=wrap;rounded=0;shadow=0;fontSize=27;fontColor=#FFFFFF;fontStyle=1" parent="1" vertex="1">
          <mxGeometry x="1010" y="425" width="280" height="60" as="geometry" />
        </mxCell>
        <mxCell id="60da8b9f42644d3a-27" value="" style="line;strokeWidth=2;html=1;rounded=0;shadow=0;fontSize=27;align=center;fillColor=none;strokeColor=#FFFFFF;" parent="1" vertex="1">
          <mxGeometry x="1030" y="485" width="240" height="10" as="geometry" />
        </mxCell>
        <mxCell id="60da8b9f42644d3a-29" value="LEADS" style="ellipse;whiteSpace=wrap;html=1;rounded=0;shadow=0;strokeWidth=6;fontSize=14;align=center;fillColor=#EF9353;strokeColor=#FFFFFF;fontColor=#FFFFFF;" parent="1" vertex="1">
          <mxGeometry x="953" y="545" width="115" height="115" as="geometry" />
        </mxCell>
        <mxCell id="60da8b9f42644d3a-34" value="" style="line;strokeWidth=2;html=1;rounded=0;shadow=0;fontSize=27;align=center;fillColor=none;strokeColor=#FFFFFF;" parent="1" vertex="1">
          <mxGeometry x="1176" y="485" width="240" height="10" as="geometry" />
        </mxCell>
        <mxCell id="60da8b9f42644d3a-36" value="CUSTOMERS" style="ellipse;whiteSpace=wrap;html=1;rounded=0;shadow=0;strokeWidth=6;fontSize=14;align=center;fillColor=#68B85C;strokeColor=#FFFFFF;fontColor=#FFFFFF;" parent="1" vertex="1">
          <mxGeometry x="1233" y="545" width="115" height="115" as="geometry" />
        </mxCell>
        <mxCell id="60da8b9f42644d3a-37" value="" style="html=1;shadow=0;dashed=0;align=center;verticalAlign=middle;shape=mxgraph.arrows2.stylisedArrow;dy=0.6;dx=40;notch=15;feather=0.4;rounded=0;strokeWidth=1;fontSize=27;strokeColor=none;fillColor=#fff2cc;" parent="1" vertex="1">
          <mxGeometry x="1248" y="572.5" width="100" height="60" as="geometry" />
        </mxCell>
        <mxCell id="-0lu--sUX_7D3RYY0f1U-2" value="" style="html=1;shadow=0;dashed=0;align=center;verticalAlign=middle;shape=mxgraph.arrows2.stylisedArrow;dy=0.6;dx=40;notch=15;feather=0.4;rounded=0;strokeWidth=1;fontSize=27;strokeColor=none;fillColor=#fff2cc;" vertex="1" parent="1">
          <mxGeometry x="680.5" y="575.5" width="100" height="60" as="geometry" />
        </mxCell>
        <mxCell id="-0lu--sUX_7D3RYY0f1U-4" value="" style="html=1;shadow=0;dashed=0;align=center;verticalAlign=middle;shape=mxgraph.arrows2.stylisedArrow;dy=0.6;dx=40;notch=15;feather=0.4;rounded=0;strokeWidth=1;fontSize=27;strokeColor=none;fillColor=#fff2cc;" vertex="1" parent="1">
          <mxGeometry x="968" y="575.5" width="100" height="60" as="geometry" />
        </mxCell>
        <mxCell id="-0lu--sUX_7D3RYY0f1U-16" value="&lt;font style=&quot;font-size: 32px&quot;&gt;&lt;b&gt;业务数据积累&lt;/b&gt;&lt;/font&gt;" style="text;html=1;strokeColor=none;fillColor=none;align=center;verticalAlign=middle;whiteSpace=wrap;rounded=0;" vertex="1" parent="1">
          <mxGeometry x="70" y="388" width="260" height="20" as="geometry" />
        </mxCell>
        <mxCell id="-0lu--sUX_7D3RYY0f1U-17" value="&lt;font size=&quot;1&quot;&gt;&lt;b style=&quot;font-size: 36px&quot;&gt;数据中台&lt;/b&gt;&lt;/font&gt;" style="text;html=1;strokeColor=none;fillColor=none;align=center;verticalAlign=middle;whiteSpace=wrap;rounded=0;" vertex="1" parent="1">
          <mxGeometry x="743" y="360" width="260" height="20" as="geometry" />
        </mxCell>
        <mxCell id="-0lu--sUX_7D3RYY0f1U-21" value="&lt;font style=&quot;font-size: 24px&quot;&gt;&lt;b&gt;统一存储&lt;/b&gt;&lt;/font&gt;" style="rounded=1;whiteSpace=wrap;html=1;labelBackgroundColor=none;fillColor=#f0a30a;strokeColor=#BD7000;fontColor=#FFFFFF;" vertex="1" parent="1">
          <mxGeometry x="490" y="525" width="180" height="65" as="geometry" />
        </mxCell>
        <mxCell id="-0lu--sUX_7D3RYY0f1U-22" value="汇聚链接" style="rounded=1;whiteSpace=wrap;html=1;labelBackgroundColor=none;fillColor=#f0a30a;strokeColor=#BD7000;fontSize=24;fontStyle=1;fontColor=#FFFFFF;" vertex="1" parent="1">
          <mxGeometry x="490" y="630" width="180" height="65" as="geometry" />
        </mxCell>
        <mxCell id="-0lu--sUX_7D3RYY0f1U-23" value="算法开发" style="rounded=1;whiteSpace=wrap;html=1;labelBackgroundColor=none;fillColor=#f0a30a;strokeColor=#BD7000;fontColor=#FFFFFF;fontSize=23;fontStyle=1" vertex="1" parent="1">
          <mxGeometry x="490" y="732.5" width="180" height="65" as="geometry" />
        </mxCell>
        <mxCell id="-0lu--sUX_7D3RYY0f1U-24" value="&lt;span style=&quot;font-size: 24px&quot;&gt;&lt;b&gt;类目管理&lt;/b&gt;&lt;/span&gt;" style="rounded=1;whiteSpace=wrap;html=1;labelBackgroundColor=none;fillColor=#f0a30a;strokeColor=#BD7000;fontColor=#FFFFFF;" vertex="1" parent="1">
          <mxGeometry x="788" y="520" width="170" height="65" as="geometry" />
        </mxCell>
        <mxCell id="-0lu--sUX_7D3RYY0f1U-25" value="标签管理" style="rounded=1;whiteSpace=wrap;html=1;labelBackgroundColor=none;fillColor=#f0a30a;strokeColor=#BD7000;fontSize=24;fontStyle=1;fontColor=#FFFFFF;" vertex="1" parent="1">
          <mxGeometry x="788" y="625" width="162" height="65" as="geometry" />
        </mxCell>
        <mxCell id="-0lu--sUX_7D3RYY0f1U-26" value="资产管理" style="rounded=1;whiteSpace=wrap;html=1;labelBackgroundColor=none;fillColor=#f0a30a;strokeColor=#BD7000;fontColor=#FFFFFF;fontSize=23;fontStyle=1" vertex="1" parent="1">
          <mxGeometry x="788" y="727.5" width="162" height="67.5" as="geometry" />
        </mxCell>
        <mxCell id="-0lu--sUX_7D3RYY0f1U-27" value="&lt;font style=&quot;font-size: 23px&quot;&gt;&lt;b&gt;数据交换&lt;/b&gt;&lt;/font&gt;" style="rounded=1;whiteSpace=wrap;html=1;labelBackgroundColor=none;fillColor=#f0a30a;strokeColor=#BD7000;fontColor=#FFFFFF;" vertex="1" parent="1">
          <mxGeometry x="1068" y="520" width="170" height="65" as="geometry" />
        </mxCell>
        <mxCell id="-0lu--sUX_7D3RYY0f1U-28" value="数据API服务" style="rounded=1;whiteSpace=wrap;html=1;labelBackgroundColor=none;fillColor=#f0a30a;strokeColor=#BD7000;fontSize=24;fontStyle=1;fontColor=#FFFFFF;" vertex="1" parent="1">
          <mxGeometry x="1068" y="625" width="162" height="65" as="geometry" />
        </mxCell>
        <mxCell id="-0lu--sUX_7D3RYY0f1U-29" value=".........." style="rounded=1;whiteSpace=wrap;html=1;labelBackgroundColor=none;fillColor=#f0a30a;strokeColor=#BD7000;fontColor=#FFFFFF;fontSize=23;fontStyle=1" vertex="1" parent="1">
          <mxGeometry x="1068" y="730" width="162" height="67.5" as="geometry" />
        </mxCell>
        <mxCell id="-0lu--sUX_7D3RYY0f1U-30" value="&lt;b style=&quot;color: rgb(0 , 0 , 0) ; font-size: 23px&quot;&gt;&lt;font color=&quot;#ffffff&quot;&gt;企业经营数据&lt;/font&gt;&lt;/b&gt;" style="rounded=1;whiteSpace=wrap;html=1;labelBackgroundColor=none;fillColor=#a0522d;strokeColor=#6D1F00;fontColor=#ffffff;" vertex="1" parent="1">
          <mxGeometry x="85" y="448" width="210" height="65" as="geometry" />
        </mxCell>
        <mxCell id="-0lu--sUX_7D3RYY0f1U-31" value="&lt;b style=&quot;font-size: 23px&quot;&gt;客户行为数据&lt;/b&gt;" style="rounded=1;whiteSpace=wrap;html=1;labelBackgroundColor=none;fillColor=#a0522d;strokeColor=#6D1F00;fontSize=24;fontStyle=1;fontColor=#ffffff;" vertex="1" parent="1">
          <mxGeometry x="85" y="553" width="210" height="65" as="geometry" />
        </mxCell>
        <mxCell id="-0lu--sUX_7D3RYY0f1U-32" value="&lt;b&gt;设备运转数据&lt;/b&gt;" style="rounded=1;whiteSpace=wrap;html=1;labelBackgroundColor=none;fillColor=#a0522d;strokeColor=#6D1F00;fontColor=#ffffff;fontSize=23;fontStyle=1" vertex="1" parent="1">
          <mxGeometry x="85" y="655.5" width="210" height="65" as="geometry" />
        </mxCell>
        <mxCell id="-0lu--sUX_7D3RYY0f1U-33" value="&lt;b&gt;生态合作数据&lt;/b&gt;" style="rounded=1;whiteSpace=wrap;html=1;labelBackgroundColor=none;fillColor=#a0522d;strokeColor=#6D1F00;fontColor=#ffffff;fontSize=23;fontStyle=1" vertex="1" parent="1">
          <mxGeometry x="85" y="758" width="210" height="65" as="geometry" />
        </mxCell>
        <mxCell id="-0lu--sUX_7D3RYY0f1U-34" value="&lt;span style=&quot;font-size: 23px&quot;&gt;&lt;b&gt;大屏数据显示&lt;/b&gt;&lt;/span&gt;" style="rounded=1;whiteSpace=wrap;html=1;labelBackgroundColor=none;fillColor=#6d8764;strokeColor=#3A5431;fontColor=#ffffff;" vertex="1" parent="1">
          <mxGeometry x="1380" y="460" width="210" height="65" as="geometry" />
        </mxCell>
        <mxCell id="-0lu--sUX_7D3RYY0f1U-35" value="&lt;span style=&quot;font-size: 23px&quot;&gt;商业智能 BI&lt;/span&gt;" style="rounded=1;whiteSpace=wrap;html=1;labelBackgroundColor=none;fillColor=#6d8764;strokeColor=#3A5431;fontSize=24;fontStyle=1;fontColor=#ffffff;" vertex="1" parent="1">
          <mxGeometry x="1380" y="565" width="210" height="65" as="geometry" />
        </mxCell>
        <mxCell id="-0lu--sUX_7D3RYY0f1U-36" value="个性化推荐" style="rounded=1;whiteSpace=wrap;html=1;labelBackgroundColor=none;fillColor=#6d8764;strokeColor=#3A5431;fontColor=#ffffff;fontSize=23;fontStyle=1" vertex="1" parent="1">
          <mxGeometry x="1380" y="667.5" width="210" height="65" as="geometry" />
        </mxCell>
        <mxCell id="-0lu--sUX_7D3RYY0f1U-37" value="智能营销" style="rounded=1;whiteSpace=wrap;html=1;labelBackgroundColor=none;fillColor=#6d8764;strokeColor=#3A5431;fontColor=#ffffff;fontSize=23;fontStyle=1" vertex="1" parent="1">
          <mxGeometry x="1380" y="770" width="210" height="65" as="geometry" />
        </mxCell>
        <mxCell id="-0lu--sUX_7D3RYY0f1U-38" value="&lt;font style=&quot;font-size: 32px&quot;&gt;&lt;b&gt;业务数据积累&lt;/b&gt;&lt;/font&gt;" style="text;html=1;strokeColor=none;fillColor=none;align=center;verticalAlign=middle;whiteSpace=wrap;rounded=0;" vertex="1" parent="1">
          <mxGeometry x="1360" y="388" width="260" height="20" as="geometry" />
        </mxCell>
      </root>
    </mxGraphModel>
  </diagram>
</mxfile>
